<?xml version="1.0" encoding="utf-8"?><!--Generator: Adobe Illustrator 18.1.1, SVG Export Plug-In . SVG Version: 6.00 Build 0)--><svg xmlns="http://www.w3.org/2000/svg" xmlns:xlink="http://www.w3.org/1999/xlink" id="Layer_1" width="512px" height="512px" x="0px" y="0px" enable-background="new 0 0 512 512" version="1.1" viewBox="0 0 512 512" xml:space="preserve"><path fill="#CF2028" d="M512,472c0,22.1-17.9,40-40,40H40c-22.1,0-40-17.9-40-40V40C0,17.9,17.9,0,40,0h432c22.1,0,40,17.9,40,40
	V472z"/><path fill="#FFFFFF" fill-rule="evenodd" d="M58.5,246.4c1.2-4.9,2.6-10.6,10.8-10.6h33
	c12.1,0,10.5,6.7,9.5,10.6l-4.4,18h-35l-1.3,5.5c-0.9,3.6,1.5,5.8,6,5.8h27.5l-3.1,12.7H60.8c-12.4,0-11.3-4.5-9.8-10.7L58.5,246.4
	L58.5,246.4z M74.9,254.5h16.4l1.1-4.4c0.3-1.3,0.8-3.5-2.3-3.5h-9.9c-2.6,0-3.6,1.6-4.1,3.3L74.9,254.5L74.9,254.5z M162.3,235.8
	h-32c-9.8,0-11.2,5.6-12.4,10.8c-1.2,5.2,0.6,10,7,14.5c6.4,4.5,13.4,7.5,12.2,11.6c-0.5,1.7-2.6,2.9-6.9,2.9h-19.3l-3.1,12.7h31.8
	c6.2,0,13.9,0.1,17.6-5.7c3.7-5.9,2.6-10.6-0.7-15.4c-3.3-4.9-9.8-8-14.6-12.7c-2.8-2.8-2.7-7.8,1.9-7.8h15.9L162.3,235.8
	L162.3,235.8z M168.3,235.8h10.3l3.3-13.6h18.7l-3.3,13.6c3.3,0,6.3,0,9.6,0c-0.9,3.6-1.7,7.2-2.6,10.8h-9.6l-5.9,24.6
	c-1.1,4.5,0.3,6.3,6,6.3l-2.6,10.8h-13.7c-12.5,0-10.5-8.6-9.5-12.7l7-29h-10.3L168.3,235.8L168.3,235.8z M210.2,246.7l2.6-10.8
	h39.9c9.7,0,8.5,7.2,7.7,10.8l-7.5,30.9c-2,8.1,0.5,8.7,2.1,10.8h-17.8c-2,0-4.6-1.5-5.5-2.4c-4.2,1.3-4.5,4-13.2,3.8
	c-8.8-0.2-18.5-8-17.7-18.4c0.8-10.5,10-16.8,18.2-16.8h20.3l1.2-4.8c0.7-3.1-1.7-3.1-3.1-3.1H210.2L210.2,246.7z M237.7,263.3
	h-12.3c-5,0-11.9,6-6.1,12C225.1,281.3,235.6,272.3,237.7,263.3L237.7,263.3z M307.2,222.2h-17.6c-4.5,0-10.3,0-12.6,9.6l-1,4h-7.8
	l-2.6,10.8h7.9l-9.1,37.7c-0.4,1.6-1,2.7-3,4h14.3c4.8,0,7.4-4.5,8.9-10.8l7.5-30.9h9.2l2.6-10.8h-9.3l0.6-2.3
	c0.4-1.7,1.8-2.9,4.3-2.9l5.6,0.1L307.2,222.2L307.2,222.2z M307.8,246.4c1.2-4.9,2.6-10.6,10.8-10.6h33c12.1,0,10.5,6.7,9.5,10.6
	l-4.4,18h-35l-1.3,5.5c-0.9,3.6,1.5,5.8,6,5.8h27.5l-3.1,12.7h-40.9c-12.4,0-11.3-4.5-9.8-10.7L307.8,246.4L307.8,246.4z
	 M324.2,254.5h16.4l1.1-4.4c0.3-1.3,0.8-3.5-2.3-3.5h-9.9c-2.6,0-3.6,1.6-4.1,3.3L324.2,254.5L324.2,254.5z M369.2,235.8h10.3
	l3.3-13.6h18.7l-3.3,13.6c3.3,0,6.3,0,9.6,0c-0.9,3.6-1.7,7.2-2.6,10.8h-9.6l-5.9,24.6c-1.1,4.5,0.3,6.3,6,6.3l-2.6,10.8h-13.7
	c-12.5,0-10.5-8.6-9.5-12.7l7-29h-10.3L369.2,235.8L369.2,235.8z M411.1,246.7l2.6-10.8h39.9c9.7,0,8.5,7.2,7.7,10.8l-7.5,30.9
	c-2,8.1,0.5,8.7,2.1,10.8h-17.8c-2,0-4.6-1.5-5.5-2.4c-4.2,1.3-4.5,4-13.2,3.8c-8.7-0.2-18.5-8-17.7-18.4
	c0.8-10.5,10-16.8,18.2-16.8h20.3l1.2-4.8c0.7-3.1-1.7-3.1-3.1-3.1H411.1L411.1,246.7z M438.6,263.3h-12.3c-5,0-11.9,6-6.1,12
	C426,281.3,436.5,272.3,438.6,263.3L438.6,263.3z" clip-rule="evenodd"/></svg>